<svg xmlns="http://www.w3.org/2000/svg" viewBox="0 0 22.71 24.00" fill="none" stroke="currentColor" stroke-width="1" stroke-linecap="round" stroke-linejoin="round"><path d="M 20.38 19.76 L 20.38 20.52"/><path d="M 20.38 20.52 C 20.38 21.53 19.56 22.34 18.55 22.34"/><path d="M 18.55 22.34 L 5.45 22.34"/><path d="M 5.45 22.34 C 4.44 22.34 3.62 21.53 3.62 20.52"/><path d="M 3.62 20.52 L 3.62 12.00"/><path d="M 3.62 12.00 L 20.38 12.00"/><path d="M 20.38 12.00 L 20.38 14.59"/><path d="M 4.69 12.00 L 4.69 9.41"/><path d="M 4.69 9.41 L 19.31 9.41"/><path d="M 19.31 9.41 L 19.31 12.00"/><path d="M 5.52 9.41 C 5.52 7.93 6.69 7.28 8.21 7.28"/><path d="M 8.21 7.28 C 9.89 7.28 15.05 8.31 14.59 4.24"/><path d="M 14.59 4.24 C 17.78 5.06 18.47 6.26 18.47 9.41"/><path d="M 6.04 3.95 L 6.83 4.24"/><path d="M 6.83 4.24 L 6.04 4.53"/><path d="M 6.04 4.53 C 5.34 4.79 4.79 5.34 4.53 6.04"/><path d="M 4.53 6.04 L 4.24 6.83"/><path d="M 4.24 6.83 L 3.95 6.04"/><path d="M 3.95 6.04 C 3.69 5.34 3.14 4.79 2.45 4.53"/><path d="M 2.45 4.53 L 1.66 4.24"/><path d="M 1.66 4.24 L 2.45 3.95"/><path d="M 2.45 3.95 C 3.14 3.69 3.69 3.14 3.95 2.45"/><path d="M 3.95 2.45 L 4.24 1.66"/><path d="M 4.24 1.66 L 4.53 2.45"/><path d="M 4.53 2.45 C 4.79 3.14 5.34 3.69 6.04 3.95"/><path d="M 20.26 16.88 L 21.05 17.17"/><path d="M 21.05 17.17 L 20.26 17.47"/><path d="M 20.26 17.47 C 19.56 17.72 19.02 18.27 18.76 18.97"/><path d="M 18.76 18.97 L 18.47 19.76"/><path d="M 18.47 19.76 L 18.17 18.97"/><path d="M 18.17 18.97 C 17.92 18.27 17.37 17.72 16.67 17.47"/><path d="M 16.67 17.47 L 15.88 17.17"/><path d="M 15.88 17.17 L 16.67 16.88"/><path d="M 16.67 16.88 C 17.37 16.62 17.92 16.07 18.17 15.38"/><path d="M 18.17 15.38 L 18.47 14.59"/><path d="M 18.47 14.59 L 18.76 15.38"/><path d="M 18.76 15.38 C 19.02 16.07 19.56 16.62 20.26 16.88"/></svg>