<svg xmlns="http://www.w3.org/2000/svg" viewBox="0 0 24.00 24.00" fill="none" stroke="currentColor" stroke-width="1" stroke-linecap="round" stroke-linejoin="round"><path d="M 16.15 22.34 L 7.85 22.34"/><path d="M 7.85 22.34 C 4.43 22.34 1.66 19.57 1.66 16.15"/><path d="M 1.66 16.15 L 1.66 7.85"/><path d="M 1.66 7.85 C 1.66 4.43 4.43 1.66 7.85 1.66"/><path d="M 7.85 1.66 L 16.15 1.66"/><path d="M 16.15 1.66 C 19.57 1.66 22.34 4.43 22.34 7.85"/><path d="M 22.34 7.85 L 22.34 16.15"/><path d="M 22.34 16.15 C 22.34 19.57 19.57 22.34 16.15 22.34"/><path d="M 12.00 15.83 C 12.00 12.53 12.31 9.02 18.52 7.73"/><path d="M 18.52 7.73 C 19.31 7.56 22.14 7.22 22.14 7.22"/><path d="M 1.86 7.22 C 1.86 7.22 4.68 7.56 5.48 7.73"/><path d="M 5.48 7.73 C 11.69 9.02 12.00 12.53 12.00 15.83"/><path d="M 12.00 10.55 C 12.00 7.25 12.31 3.51 18.52 2.22"/><path d="M 5.48 2.22 C 11.69 3.51 12.00 7.25 12.00 10.55"/><path d="M 12.00 21.06 C 12.00 17.75 12.31 14.25 18.52 12.95"/><path d="M 18.52 12.95 C 19.31 12.79 22.34 12.44 22.34 12.44"/><path d="M 1.66 12.44 C 1.66 12.44 4.68 12.79 5.48 12.95"/><path d="M 5.48 12.95 C 11.69 14.25 12.00 17.75 12.00 21.06"/><path d="M 12.00 22.34 L 12.00 8.82"/></svg>