<svg xmlns="http://www.w3.org/2000/svg" viewBox="0 0 17.10 24.00" fill="none" stroke="currentColor" stroke-width="1" stroke-linecap="round" stroke-linejoin="round"><path d="M 15.45 3.95 C 15.45 5.22 14.42 6.25 13.15 6.25"/><path d="M 13.15 6.25 C 11.88 6.25 10.85 5.22 10.85 3.95"/><path d="M 10.85 3.95 C 10.85 2.68 11.88 1.66 13.15 1.66"/><path d="M 13.15 1.66 C 14.42 1.66 15.45 2.68 15.45 3.95"/><path d="M 5.10 7.99 C 5.10 8.95 4.33 9.72 3.38 9.72"/><path d="M 3.38 9.72 C 2.43 9.72 1.66 8.95 1.66 7.99"/><path d="M 1.66 7.99 C 1.66 7.04 2.43 6.27 3.38 6.27"/><path d="M 3.38 6.27 C 4.33 6.27 5.10 7.04 5.10 7.99"/><path d="M 7.40 22.34 L 7.40 16.59"/><path d="M 7.40 16.59 C 7.40 12.90 7.91 8.99 15.45 7.40"/><path d="M 15.45 7.40 L 15.45 13.01"/><path d="M 15.45 13.01 C 15.45 17.03 11.63 20.99 7.40 22.34"/><path d="M 7.40 22.34 L 7.40 18.12"/><path d="M 7.40 18.12 C 7.40 15.40 7.19 12.02 1.66 10.85"/><path d="M 1.66 10.85 L 1.66 15.48"/><path d="M 1.66 15.48 C 1.66 18.43 4.29 21.35 7.40 22.34"/></svg>