<svg xmlns="http://www.w3.org/2000/svg" viewBox="0 0 24.00 14.80" fill="none" stroke="currentColor" stroke-width="1" stroke-linecap="round" stroke-linejoin="round"><path d="M 22.34 6.25 L 22.34 8.55"/><path d="M 18.31 13.15 L 17.75 13.15"/><path d="M 17.75 13.15 C 17.11 13.15 16.60 12.63 16.60 12.00"/><path d="M 16.60 12.00 L 16.60 2.80"/><path d="M 16.60 2.80 C 16.60 2.17 17.11 1.66 17.75 1.66"/><path d="M 17.75 1.66 L 18.31 1.66"/><path d="M 18.31 1.66 C 18.94 1.66 19.46 2.17 19.46 2.80"/><path d="M 19.46 2.80 L 19.46 12.00"/><path d="M 19.46 12.00 C 19.46 12.63 18.94 13.15 18.31 13.15"/><path d="M 20.27 10.85 L 19.46 10.85"/><path d="M 19.46 10.85 L 19.46 3.95"/><path d="M 19.46 3.95 L 20.27 3.95"/><path d="M 20.27 3.95 C 20.78 3.95 21.19 4.37 21.19 4.88"/><path d="M 21.19 4.88 L 21.19 9.92"/><path d="M 21.19 9.92 C 21.19 10.44 20.78 10.85 20.27 10.85"/><path d="M 1.66 8.55 L 1.66 6.25"/><path d="M 5.69 1.66 L 6.25 1.66"/><path d="M 6.25 1.66 C 6.89 1.66 7.40 2.17 7.40 2.80"/><path d="M 7.40 2.80 L 7.40 12.00"/><path d="M 7.40 12.00 C 7.40 12.63 6.89 13.15 6.25 13.15"/><path d="M 6.25 13.15 L 5.69 13.15"/><path d="M 5.69 13.15 C 5.06 13.15 4.54 12.63 4.54 12.00"/><path d="M 4.54 12.00 L 4.54 2.80"/><path d="M 4.54 2.80 C 4.54 2.17 5.06 1.66 5.69 1.66"/><path d="M 3.73 3.95 L 4.54 3.95"/><path d="M 4.54 3.95 L 4.54 10.85"/><path d="M 4.54 10.85 L 3.73 10.85"/><path d="M 3.73 10.85 C 3.22 10.85 2.81 10.44 2.81 9.92"/><path d="M 2.81 9.92 L 2.81 4.88"/><path d="M 2.81 4.88 C 2.81 4.37 3.22 3.95 3.73 3.95"/><path d="M 16.60 6.25 L 7.41 6.25"/><path d="M 16.60 8.55 L 7.41 8.55"/></svg>