<svg xmlns="http://www.w3.org/2000/svg" viewBox="0 0 24.00 13.66" fill="none" stroke="currentColor" stroke-width="1" stroke-linecap="round" stroke-linejoin="round"><path d="M 8.99 12.00 C 8.37 12.00 7.69 10.85 7.69 9.46"/><path d="M 7.69 9.46 C 7.69 7.93 8.92 6.30 10.45 6.30"/><path d="M 10.45 6.30 L 13.55 6.30"/><path d="M 13.55 6.30 C 15.08 6.30 16.31 7.93 16.31 9.46"/><path d="M 16.31 9.46 C 16.31 10.85 15.63 12.00 15.01 12.00"/><path d="M 13.53 3.18 C 13.53 4.02 12.84 4.71 12.00 4.71"/><path d="M 12.00 4.71 C 11.16 4.71 10.47 4.02 10.47 3.18"/><path d="M 10.47 3.18 C 10.47 2.34 11.16 1.66 12.00 1.66"/><path d="M 12.00 1.66 C 12.84 1.66 13.53 2.34 13.53 3.18"/><path d="M 2.96 12.00 C 2.34 12.00 1.66 10.85 1.66 9.46"/><path d="M 1.66 9.46 C 1.66 7.93 2.89 6.30 4.42 6.30"/><path d="M 4.42 6.30 L 7.52 6.30"/><path d="M 7.52 6.30 C 9.05 6.30 10.29 7.93 10.29 9.46"/><path d="M 10.29 9.46 C 10.29 10.85 9.60 12.00 8.98 12.00"/><path d="M 7.50 3.18 C 7.50 4.02 6.81 4.71 5.97 4.71"/><path d="M 5.97 4.71 C 5.13 4.71 4.44 4.02 4.44 3.18"/><path d="M 4.44 3.18 C 4.44 2.34 5.13 1.66 5.97 1.66"/><path d="M 5.97 1.66 C 6.81 1.66 7.50 2.34 7.50 3.18"/><path d="M 15.02 12.00 C 14.40 12.00 13.71 10.85 13.71 9.46"/><path d="M 13.71 9.46 C 13.71 7.93 14.95 6.30 16.48 6.30"/><path d="M 16.48 6.30 L 19.58 6.30"/><path d="M 19.58 6.30 C 21.11 6.30 22.34 7.93 22.34 9.46"/><path d="M 22.34 9.46 C 22.34 10.85 21.66 12.00 21.04 12.00"/><path d="M 19.56 3.18 C 19.56 4.02 18.87 4.71 18.03 4.71"/><path d="M 18.03 4.71 C 17.19 4.71 16.50 4.02 16.50 3.18"/><path d="M 16.50 3.18 C 16.50 2.34 17.19 1.66 18.03 1.66"/><path d="M 18.03 1.66 C 18.87 1.66 19.56 2.34 19.56 3.18"/></svg>