<svg xmlns="http://www.w3.org/2000/svg" viewBox="0 0 24.00 20.40" fill="none" stroke="currentColor" stroke-width="1" stroke-linecap="round" stroke-linejoin="round"><path d="M 12.00 18.74 C 12.00 18.74 12.05 14.26 16.86 12.22"/><path d="M 16.86 12.22 C 18.47 11.54 19.22 10.72 20.54 9.13"/><path d="M 20.54 9.13 C 20.54 9.14 22.34 18.41 12.00 18.74"/><path d="M 13.60 3.26 C 13.60 4.14 12.88 4.86 12.00 4.86"/><path d="M 12.00 4.86 C 11.12 4.86 10.40 4.14 10.40 3.26"/><path d="M 10.40 3.26 C 10.40 2.37 11.12 1.66 12.00 1.66"/><path d="M 12.00 1.66 C 12.88 1.66 13.60 2.37 13.60 3.26"/><path d="M 12.00 6.99 C 16.27 2.15 20.97 8.69 15.69 10.91"/><path d="M 15.69 10.91 C 12.60 12.21 12.00 14.47 12.00 14.47"/><path d="M 12.00 18.74 C 12.00 18.74 11.95 14.26 7.14 12.22"/><path d="M 7.14 12.22 C 5.53 11.54 4.78 10.72 3.46 9.13"/><path d="M 3.46 9.13 C 3.46 9.14 1.66 18.41 12.00 18.74"/><path d="M 12.00 6.99 C 7.73 2.15 3.03 8.69 8.31 10.91"/><path d="M 8.31 10.91 C 11.40 12.21 12.00 14.47 12.00 14.47"/></svg>