<svg xmlns="http://www.w3.org/2000/svg" viewBox="0 0 21.32 24.00" fill="none" stroke="currentColor" stroke-width="1" stroke-linecap="round" stroke-linejoin="round"><path d="M 4.37 22.34 C 3.09 22.34 1.66 19.95 1.66 17.04"/><path d="M 1.66 17.04 L 1.66 17.04"/><path d="M 1.66 17.04 C 1.66 13.85 4.23 10.44 7.42 10.44"/><path d="M 7.42 10.44 L 13.90 10.44"/><path d="M 13.90 10.44 C 17.08 10.44 19.66 13.85 19.66 17.04"/><path d="M 19.66 17.04 L 19.66 17.04"/><path d="M 19.66 17.04 C 19.66 19.95 18.23 22.34 16.94 22.34"/><path d="M 13.84 4.84 C 13.84 6.59 12.42 8.02 10.66 8.02"/><path d="M 10.66 8.02 C 8.90 8.02 7.48 6.59 7.48 4.84"/><path d="M 7.48 4.84 C 7.48 3.08 8.90 1.66 10.66 1.66"/><path d="M 10.66 1.66 C 12.42 1.66 13.84 3.08 13.84 4.84"/><path d="M 10.66 15.75 C 14.40 11.10 18.73 17.25 13.66 18.85"/><path d="M 13.66 18.85 C 10.98 19.70 10.66 21.90 10.66 21.90"/><path d="M 10.66 15.75 C 6.92 11.10 2.58 17.25 7.66 18.85"/><path d="M 7.66 18.85 C 10.34 19.70 10.66 21.90 10.66 21.90"/></svg>