<svg xmlns="http://www.w3.org/2000/svg" viewBox="0 0 16.24 24.00" fill="none" stroke="currentColor" stroke-width="1" stroke-linecap="round" stroke-linejoin="round"><path d="M 8.12 1.66 L 8.12 1.66"/><path d="M 8.12 1.66 C 11.69 1.66 14.59 4.55 14.59 8.12"/><path d="M 14.59 8.12 L 14.59 14.05"/><path d="M 14.59 14.05 C 14.59 17.62 11.56 21.14 8.12 22.34"/><path d="M 8.12 22.34 C 4.68 21.14 1.66 17.62 1.66 14.05"/><path d="M 1.66 14.05 L 1.66 8.12"/><path d="M 1.66 8.12 C 1.66 4.55 4.55 1.66 8.12 1.66"/><path d="M 11.03 7.15 C 11.03 8.76 9.73 10.06 8.12 10.06"/><path d="M 8.12 10.06 C 6.51 10.06 5.21 8.76 5.21 7.15"/><path d="M 5.21 7.15 C 5.21 5.54 6.51 4.24 8.12 4.24"/><path d="M 8.12 4.24 C 9.73 4.24 11.03 5.54 11.03 7.15"/><path d="M 14.59 10.49 C 8.46 11.91 8.12 15.25 8.12 18.53"/><path d="M 8.12 18.53 L 8.12 22.34"/><path d="M 1.66 10.49 C 7.78 11.91 8.12 15.25 8.12 18.53"/><path d="M 8.12 18.53 L 8.12 22.34"/></svg>