<svg xmlns="http://www.w3.org/2000/svg" viewBox="0 0 24.00 24.00" fill="none" stroke="currentColor" stroke-width="1" stroke-linecap="round" stroke-linejoin="round"><path d="M 14.25 17.40 L 14.25 20.55"/><path d="M 14.25 20.55 L 14.02 20.55"/><path d="M 14.02 20.55 L 13.55 20.05"/><path d="M 13.55 20.05 C 10.01 16.35 5.69 15.69 3.68 15.59"/><path d="M 3.68 15.59 C 3.05 15.56 2.55 15.04 2.55 14.41"/><path d="M 2.55 14.41 L 2.55 9.56"/><path d="M 2.55 9.56 C 2.55 8.92 3.06 8.40 3.69 8.38"/><path d="M 3.69 8.38 C 4.19 8.36 4.77 8.32 5.25 8.25"/><path d="M 14.25 14.25 L 14.25 3.45"/><path d="M 14.25 3.45 L 14.02 3.45"/><path d="M 14.02 3.45 L 13.55 3.95"/><path d="M 13.55 3.95 C 11.94 5.64 9.94 6.91 7.72 7.65"/><path d="M 7.72 7.65 L 7.67 7.67"/><path d="M 16.50 9.75 C 17.74 9.75 18.75 10.76 18.75 12.00"/><path d="M 18.75 12.00 C 18.75 13.24 17.74 14.25 16.50 14.25"/><path d="M 16.50 7.05 C 19.23 7.05 21.45 9.26 21.45 11.99"/><path d="M 21.45 11.99 C 21.46 14.56 19.50 16.70 16.95 16.93"/><path d="M 22.34 22.34 L 1.66 1.66"/></svg>