<svg xmlns="http://www.w3.org/2000/svg" viewBox="0 0 23.80 24.00" fill="none" stroke="currentColor" stroke-width="1" stroke-linecap="round" stroke-linejoin="round"><path d="M 6.84 6.84 L 6.84 3.91"/><path d="M 6.84 3.91 C 6.84 2.79 7.74 1.89 8.86 1.89"/><path d="M 8.86 1.89 L 14.95 1.89"/><path d="M 14.95 1.89 C 16.06 1.89 16.96 2.79 16.96 3.91"/><path d="M 16.96 3.91 L 16.96 16.96"/><path d="M 16.96 19.77 L 16.96 20.33"/><path d="M 16.96 20.33 C 16.96 21.44 16.06 22.34 14.95 22.34"/><path d="M 14.95 22.34 L 8.86 22.34"/><path d="M 8.86 22.34 C 7.74 22.34 6.84 21.44 6.84 20.33"/><path d="M 6.84 20.33 L 6.84 9.64"/><path d="M 10.73 20.50 L 13.07 20.50"/><path d="M 22.15 22.15 L 1.66 1.66"/></svg>