<svg xmlns="http://www.w3.org/2000/svg" viewBox="0 0 24.00 23.53" fill="none" stroke="currentColor" stroke-width="1" stroke-linecap="round" stroke-linejoin="round"><path d="M 14.78 1.66 C 14.78 4.04 16.04 4.41 17.45 4.41"/><path d="M 17.45 4.41 C 18.75 4.41 19.90 5.53 19.90 7.41"/><path d="M 19.90 7.41 L 19.90 8.86"/><path d="M 18.01 8.86 C 18.01 7.37 17.61 6.32 15.81 6.32"/><path d="M 15.81 6.32 C 14.25 6.32 13.12 5.27 13.12 3.78"/><path d="M 11.72 11.25 L 19.96 11.25"/><path d="M 19.96 11.25 L 19.96 14.70"/><path d="M 19.96 14.70 L 15.17 14.70"/><path d="M 12.56 14.70 L 1.66 14.70"/><path d="M 1.66 14.70 L 1.66 11.25"/><path d="M 1.66 11.25 L 9.11 11.25"/><path d="M 4.10 11.25 L 4.10 14.70"/><path d="M 22.34 21.88 L 3.28 2.81"/></svg>