<svg xmlns="http://www.w3.org/2000/svg" viewBox="0 0 24.00 24.00" fill="none" stroke="currentColor" stroke-width="1" stroke-linecap="round" stroke-linejoin="round"><path d="M 12.00 12.00 L 1.66 12.00"/><path d="M 1.66 12.00 C 1.66 15.90 3.64 19.29 6.83 21.05"/><path d="M 6.83 21.05 L 6.83 22.34"/><path d="M 6.83 22.34 L 17.17 22.34"/><path d="M 17.17 22.34 L 17.17 21.05"/><path d="M 17.17 21.05 C 20.36 19.29 22.34 15.90 22.34 12.00"/><path d="M 22.34 12.00 L 12.00 12.00"/><path d="M 13.35 10.08 C 14.24 9.76 15.00 9.35 15.65 8.74"/><path d="M 15.65 8.74 C 16.41 8.04 16.88 7.15 16.97 6.11"/><path d="M 16.97 6.11 C 17.08 5.14 16.91 4.20 16.53 3.29"/><path d="M 16.53 3.29 C 15.68 3.56 14.93 3.96 14.28 4.55"/><path d="M 14.28 4.55 C 13.43 5.30 12.96 6.31 12.89 7.45"/><path d="M 12.89 7.45 C 12.85 8.34 13.00 9.22 13.35 10.08"/><path d="M 11.13 5.81 C 11.06 4.68 10.59 3.67 9.73 2.92"/><path d="M 9.73 2.92 C 9.09 2.32 8.34 1.92 7.49 1.66"/><path d="M 7.49 1.66 C 7.11 2.56 6.94 3.51 7.05 4.48"/><path d="M 7.05 4.48 C 7.14 5.51 7.60 6.41 8.37 7.11"/><path d="M 8.37 7.11 C 9.02 7.71 9.77 8.13 10.67 8.45"/><path d="M 10.67 8.45 C 11.02 7.59 11.17 6.71 11.13 5.81"/></svg>