<svg xmlns="http://www.w3.org/2000/svg" viewBox="0 0 24.00 21.69" fill="none" stroke="currentColor" stroke-width="1" stroke-linecap="round" stroke-linejoin="round"><path d="M 13.73 3.38 C 13.73 4.33 12.96 5.10 12.00 5.10"/><path d="M 12.00 5.10 C 11.05 5.10 10.28 4.33 10.28 3.38"/><path d="M 10.28 3.38 C 10.28 2.43 11.05 1.66 12.00 1.66"/><path d="M 12.00 1.66 C 12.96 1.66 13.73 2.43 13.73 3.38"/><path d="M 5.11 15.88 C 5.11 16.83 4.34 17.60 3.38 17.60"/><path d="M 3.38 17.60 C 2.43 17.60 1.66 16.83 1.66 15.88"/><path d="M 1.66 15.88 C 1.66 14.92 2.43 14.15 3.38 14.15"/><path d="M 3.38 14.15 C 4.34 14.15 5.11 14.92 5.11 15.88"/><path d="M 1.66 20.04 L 22.34 20.04"/><path d="M 10.85 12.00 C 10.85 12.00 8.82 10.01 8.82 7.56"/><path d="M 8.82 7.56 C 8.82 7.16 9.07 6.81 9.45 6.68"/><path d="M 9.45 6.68 C 10.07 6.46 10.94 6.26 12.00 6.26"/><path d="M 12.00 6.26 C 13.07 6.26 13.94 6.46 14.56 6.68"/><path d="M 14.56 6.68 C 14.94 6.81 15.19 7.16 15.19 7.56"/><path d="M 15.19 7.56 C 15.19 10.02 17.75 12.00 17.75 12.00"/><path d="M 15.45 17.74 L 6.26 17.74"/><path d="M 6.26 17.74 L 6.26 16.70"/><path d="M 6.26 16.70 C 6.26 15.19 7.48 13.97 8.99 13.97"/><path d="M 8.99 13.97 C 9.42 13.97 13.76 14.56 15.36 14.59"/><path d="M 15.36 14.59 C 19.24 14.68 22.34 10.85 22.34 10.85"/></svg>