<svg xmlns="http://www.w3.org/2000/svg" viewBox="0 0 24.00 22.02" fill="none" stroke="currentColor" stroke-width="1" stroke-linecap="round" stroke-linejoin="round"><path d="M 16.92 5.59 C 19.91 5.59 22.34 8.01 22.34 11.00"/><path d="M 22.34 11.00 C 22.34 13.81 20.20 16.15 17.41 16.40"/><path d="M 16.92 8.55 C 18.28 8.55 19.38 9.65 19.38 11.01"/><path d="M 19.38 11.01 C 19.38 12.37 18.28 13.47 16.92 13.47"/><path d="M 14.46 11.01 L 14.46 20.36"/><path d="M 14.46 20.36 L 14.21 20.36"/><path d="M 14.21 20.36 L 13.69 19.82"/><path d="M 13.69 19.82 C 9.82 15.76 5.09 15.04 2.89 14.94"/><path d="M 2.89 14.94 C 2.20 14.91 1.66 14.34 1.66 13.65"/><path d="M 1.66 13.65 L 1.66 11.01"/><path d="M 1.66 11.01 L 1.66 8.37"/><path d="M 1.66 8.37 C 1.66 7.68 2.20 7.11 2.89 7.08"/><path d="M 2.89 7.08 C 5.09 6.98 9.82 6.25 13.69 2.19"/><path d="M 13.69 2.19 L 14.21 1.66"/><path d="M 14.21 1.66 L 14.46 1.66"/><path d="M 14.46 1.66 L 14.46 11.01"/></svg>