<svg xmlns="http://www.w3.org/2000/svg" viewBox="0 0 24.00 18.03" fill="none" stroke="currentColor" stroke-width="1" stroke-linecap="round" stroke-linejoin="round"><path d="M 12.00 15.43 C 13.22 14.95 15.36 13.96 16.31 13.09"/><path d="M 16.31 13.09 C 19.06 10.37 18.99 6.35 17.74 2.80"/><path d="M 17.74 2.80 C 16.59 3.17 15.54 4.06 14.49 4.94"/><path d="M 12.00 15.43 C 20.66 16.38 22.17 9.19 22.34 6.82"/><path d="M 22.34 6.82 C 21.21 6.60 19.79 6.58 18.60 6.81"/><path d="M 12.00 1.66 C 9.70 3.95 8.56 6.32 8.56 8.54"/><path d="M 8.56 8.54 C 8.56 10.84 9.70 13.13 12.00 15.43"/><path d="M 12.00 15.43 C 14.30 13.13 15.44 10.84 15.44 8.54"/><path d="M 15.44 8.54 C 15.44 6.32 14.30 3.95 12.00 1.66"/><path d="M 12.00 15.43 C 10.78 14.95 8.64 13.96 7.69 13.09"/><path d="M 7.69 13.09 C 4.94 10.37 5.01 6.35 6.26 2.80"/><path d="M 6.26 2.80 C 7.41 3.17 8.46 4.06 9.51 4.94"/><path d="M 12.00 15.43 C 3.34 16.38 1.83 9.19 1.66 6.82"/><path d="M 1.66 6.82 C 2.79 6.60 4.21 6.58 5.40 6.81"/></svg>