<svg xmlns="http://www.w3.org/2000/svg" viewBox="0 0 19.39 24.00" fill="none" stroke="currentColor" stroke-width="1" stroke-linecap="round" stroke-linejoin="round"><path d="M 9.69 9.69 L 9.69 6.57"/><path d="M 9.69 6.57 C 9.69 4.57 9.90 2.52 13.65 1.66"/><path d="M 13.65 1.66 L 13.65 4.62"/><path d="M 13.65 4.62 C 13.65 6.81 11.80 8.96 9.69 9.69"/><path d="M 9.69 9.69 L 9.69 6.57"/><path d="M 9.69 6.57 C 9.69 4.57 9.49 2.52 5.74 1.66"/><path d="M 5.74 1.66 L 5.74 4.62"/><path d="M 5.74 4.62 C 5.74 6.81 7.59 8.96 9.69 9.69"/><path d="M 9.69 9.69 L 9.69 12.82"/><path d="M 9.69 12.82 C 9.69 14.82 9.49 16.87 5.74 17.73"/><path d="M 5.74 17.73 L 5.74 14.76"/><path d="M 5.74 14.76 C 5.74 12.58 7.59 10.43 9.69 9.69"/><path d="M 9.69 9.69 L 9.69 12.82"/><path d="M 9.69 12.82 C 9.69 14.82 9.90 16.87 13.65 17.73"/><path d="M 13.65 17.73 L 13.65 14.76"/><path d="M 13.65 14.76 C 13.65 12.58 11.80 10.43 9.69 9.69"/><path d="M 12.63 22.34 C 11.01 22.34 9.69 21.03 9.69 19.41"/><path d="M 9.69 19.41 L 9.69 9.93"/><path d="M 9.69 9.69 L 12.82 9.69"/><path d="M 12.82 9.69 C 14.82 9.69 16.87 9.90 17.73 13.65"/><path d="M 17.73 13.65 L 14.76 13.65"/><path d="M 14.76 13.65 C 12.58 13.65 10.43 11.80 9.69 9.69"/><path d="M 9.69 9.69 L 12.82 9.69"/><path d="M 12.82 9.69 C 14.82 9.69 16.87 9.49 17.73 5.74"/><path d="M 17.73 5.74 L 14.76 5.74"/><path d="M 14.76 5.74 C 12.58 5.74 10.43 7.59 9.69 9.69"/><path d="M 9.69 9.69 L 6.57 9.69"/><path d="M 6.57 9.69 C 4.57 9.69 2.52 9.49 1.66 5.74"/><path d="M 1.66 5.74 L 4.62 5.74"/><path d="M 4.62 5.74 C 6.81 5.74 8.96 7.59 9.69 9.69"/><path d="M 9.69 9.69 L 6.57 9.69"/><path d="M 6.57 9.69 C 4.57 9.69 2.52 9.90 1.66 13.65"/><path d="M 1.66 13.65 L 4.62 13.65"/><path d="M 4.62 13.65 C 6.81 13.65 8.96 11.80 9.69 9.69"/></svg>