<svg xmlns="http://www.w3.org/2000/svg" viewBox="0 0 19.12 24.00" fill="none" stroke="currentColor" stroke-width="1" stroke-linecap="round" stroke-linejoin="round"><path d="M 10.01 13.94 C 10.01 4.81 17.01 4.90 17.01 4.90"/><path d="M 17.01 4.90 C 17.01 4.90 17.47 8.19 15.34 10.53"/><path d="M 15.34 10.53 C 13.06 13.03 10.67 11.86 10.01 13.94"/><path d="M 10.01 13.94 L 10.01 17.04"/><path d="M 10.01 17.04 C 10.01 19.97 12.39 22.34 15.31 22.34"/><path d="M 10.01 13.94 C 9.13 11.73 6.62 12.07 4.30 9.62"/><path d="M 4.30 9.62 C 1.66 6.83 2.75 1.99 2.75 1.99"/><path d="M 2.75 1.99 C 2.75 1.99 10.01 1.66 10.01 13.94"/></svg>