<svg xmlns="http://www.w3.org/2000/svg" viewBox="0 0 18.86 24.00" fill="none" stroke="currentColor" stroke-width="1" stroke-linecap="round" stroke-linejoin="round"><path d="M 12.36 22.34 C 10.74 22.34 9.43 21.03 9.43 19.42"/><path d="M 6.51 22.34 C 8.12 22.34 9.43 21.03 9.43 19.42"/><path d="M 9.43 19.42 L 9.43 1.71"/><path d="M 2.54 11.16 L 1.66 7.57"/><path d="M 1.66 7.57 C 6.85 7.49 8.80 10.95 9.43 14.82"/><path d="M 9.43 14.82 L 9.43 16.82"/><path d="M 9.43 16.82 C 7.23 14.00 4.20 15.65 2.54 11.16"/><path d="M 9.43 9.32 L 9.43 7.36"/><path d="M 9.43 7.36 C 9.89 4.51 11.35 1.66 15.16 1.71"/><path d="M 15.16 1.71 C 15.16 1.71 14.86 3.71 14.42 4.60"/><path d="M 14.42 4.60 C 12.97 7.50 11.23 6.42 9.43 9.32"/><path d="M 4.44 4.60 C 4.00 3.71 3.71 1.71 3.71 1.71"/><path d="M 3.71 1.71 C 7.51 1.66 8.97 4.51 9.43 7.36"/><path d="M 9.43 7.36 L 9.43 9.32"/><path d="M 9.43 9.32 C 7.63 6.42 5.89 7.50 4.44 4.60"/><path d="M 9.43 16.82 L 9.43 14.82"/><path d="M 9.43 14.82 C 10.06 10.95 12.02 7.49 17.21 7.57"/><path d="M 17.21 7.57 L 16.32 11.16"/><path d="M 16.32 11.16 C 14.66 15.65 11.64 14.00 9.43 16.82"/></svg>